HIERARCHY
ROOT hip
{
  OFFSET 0 0 0
  CHANNELS 6 Xposition Yposition Zposition Zrotation Yrotation Xrotation
  JOINT abdomen
  {
    OFFSET 0 20.6881 -0.73152
    CHANNELS 3 Zrotation Xrotation Yrotation
    JOINT chest
    {
      OFFSET 0 11.7043 -0.48768
      CHANNELS 3 Zrotation Xrotation Yrotation
      JOINT neck
      {
        OFFSET 0 22.1894 -2.19456
        CHANNELS 3 Zrotation Xrotation Yrotation
        JOINT head
        {
          OFFSET -0.24384 7.07133 1.2192
          CHANNELS 3 Zrotation Xrotation Yrotation
          JOINT leftEye
          {
            OFFSET 4.14528 8.04674 8.04672
            CHANNELS 3 Zrotation Xrotation Yrotation
            End Site
            {
              OFFSET 1 0 0
            }
          }
          JOINT rightEye
          {
            OFFSET -3.6576 8.04674 8.04672
            CHANNELS 3 Zrotation Xrotation Yrotation
            End Site
            {
              OFFSET 1 0 0
            }
          }
        }
      }
      JOINT rCollar
      {
        OFFSET -2.68224 19.2634 -4.8768
        CHANNELS 3 Zrotation Xrotation Yrotation
        JOINT rShldr
        {
          OFFSET -8.77824 -1.95073 1.46304
          CHANNELS 3 Zrotation Xrotation Yrotation
          JOINT rForeArm
          {
            OFFSET -28.1742 -1.7115 0.48768
            CHANNELS 3 Zrotation Xrotation Yrotation
            JOINT rHand
            {
              OFFSET -22.5879 0.773209 7.07136
              CHANNELS 3 Zrotation Xrotation Yrotation
              JOINT rThumb1
              {
                OFFSET -1.2192 -0.487915 3.41376
                CHANNELS 3 Zrotation Xrotation Yrotation
                JOINT rThumb2
                {
                  OFFSET -3.37035 -0.52449 3.41376
                  CHANNELS 3 Zrotation Xrotation Yrotation
                  End Site
                  {
                    OFFSET -1.78271 -1.18214 1.43049
                  }
                }
              }
              JOINT rIndex1
              {
                OFFSET -7.75947 0.938293 5.60832
                CHANNELS 3 Zrotation Xrotation Yrotation
                JOINT rIndex2
                {
                  OFFSET -2.54057 -0.884171 1.56538
                  CHANNELS 3 Zrotation Xrotation Yrotation
                  End Site
                  {
                    OFFSET -1.62519 -0.234802 1.16502
                  }
                }
              }
              JOINT rMid1
              {
                OFFSET -8.24714 1.18213 3.41376
                CHANNELS 3 Zrotation Xrotation Yrotation
                JOINT rMid2
                {
                  OFFSET -3.10165 -0.590103 1.0647
                  CHANNELS 3 Zrotation Xrotation Yrotation
                  End Site
                  {
                    OFFSET -2.48547 -0.328903 0.83742
                  }
                }
              }
              JOINT rRing1
              {
                OFFSET -8.82822 0.546677 1.51678
                CHANNELS 3 Zrotation Xrotation Yrotation
                JOINT rRing2
                {
                  OFFSET -2.60934 -0.819778 -0.0198488
                  CHANNELS 3 Zrotation Xrotation Yrotation
                  End Site
                  {
                    OFFSET -2.33842 -0.294052 0.168128
                  }
                }
              }
              JOINT rPinky1
              {
                OFFSET -8.27202 -0.0477905 -0.4584
                CHANNELS 3 Zrotation Xrotation Yrotation
                JOINT rPinky2
                {
                  OFFSET -1.82734 -0.647385 -0.700984
                  CHANNELS 3 Zrotation Xrotation Yrotation
                  End Site
                  {
                    OFFSET -1.69225 -0.51767 -0.607171
                  }
                }
              }
            }
          }
        }
      }
      JOINT lCollar
      {
        OFFSET 2.68224 19.2634 -4.8768
        CHANNELS 3 Zrotation Xrotation Yrotation
        JOINT lShldr
        {
          OFFSET 8.77824 -1.95073 1.46304
          CHANNELS 3 Zrotation Xrotation Yrotation
          JOINT lForeArm
          {
            OFFSET 28.1742 -1.7115 0.48768
            CHANNELS 3 Zrotation Xrotation Yrotation
            JOINT lHand
            {
              OFFSET 22.5879 0.773209 7.07136
              CHANNELS 3 Zrotation Xrotation Yrotation
              JOINT lThumb1
              {
                OFFSET 1.2192 -0.487915 3.41376
                CHANNELS 3 Zrotation Xrotation Yrotation
                JOINT lThumb2
                {
                  OFFSET 3.37035 -0.52449 3.41376
                  CHANNELS 3 Zrotation Xrotation Yrotation
                  End Site
                  {
                    OFFSET 1.78271 -1.18214 1.43049
                  }
                }
              }
              JOINT lIndex1
              {
                OFFSET 7.75947 0.938293 5.60832
                CHANNELS 3 Zrotation Xrotation Yrotation
                JOINT lIndex2
                {
                  OFFSET 2.54057 -0.884171 1.56538
                  CHANNELS 3 Zrotation Xrotation Yrotation
                  End Site
                  {
                    OFFSET 1.62519 -0.234802 1.16502
                  }
                }
              }
              JOINT lMid1
              {
                OFFSET 8.24714 1.18213 3.41376
                CHANNELS 3 Zrotation Xrotation Yrotation
                JOINT lMid2
                {
                  OFFSET 3.10165 -0.590103 1.0647
                  CHANNELS 3 Zrotation Xrotation Yrotation
                  End Site
                  {
                    OFFSET 2.48547 -0.328903 0.83742
                  }
                }
              }
              JOINT lRing1
              {
                OFFSET 8.82822 0.546677 1.51678
                CHANNELS 3 Zrotation Xrotation Yrotation
                JOINT lRing2
                {
                  OFFSET 2.60934 -0.819778 -0.0198488
                  CHANNELS 3 Zrotation Xrotation Yrotation
                  End Site
                  {
                    OFFSET 2.33842 -0.294052 0.168128
                  }
                }
              }
              JOINT lPinky1
              {
                OFFSET 8.27202 -0.0477905 -0.4584
                CHANNELS 3 Zrotation Xrotation Yrotation
                JOINT lPinky2
                {
                  OFFSET 1.82734 -0.647385 -0.700984
                  CHANNELS 3 Zrotation Xrotation Yrotation
                  End Site
                  {
                    OFFSET 1.69225 -0.51767 -0.607171
                  }
                }
              }
            }
          }
        }
      }
    }
  }
  JOINT rButtock
  {
    OFFSET -8.77824 4.35084 1.2192
    CHANNELS 3 Zrotation Xrotation Yrotation
    JOINT rThigh
    {
      OFFSET 0 -1.70687 -2.19456
      CHANNELS 3 Zrotation Xrotation Yrotation
      JOINT rShin
      {
        OFFSET 0 -36.8199 0.73152
        CHANNELS 3 Zrotation Xrotation Yrotation
        JOINT rFoot
        {
          OFFSET 0.73152 -45.1104 -5.12064
          CHANNELS 3 Zrotation Xrotation Yrotation
          End Site
          {
            OFFSET -1.1221 -3.69964 12.103
          }
        }
      }
    }
  }
  JOINT lButtock
  {
    OFFSET 8.77824 4.35084 1.2192
    CHANNELS 3 Zrotation Xrotation Yrotation
    JOINT lThigh
    {
      OFFSET 0 -1.70687 -2.19456
      CHANNELS 3 Zrotation Xrotation Yrotation
      JOINT lShin
      {
        OFFSET 0 -36.8199 0.73152
        CHANNELS 3 Zrotation Xrotation Yrotation
        JOINT lFoot
        {
          OFFSET -0.73152 -45.1104 -5.12064
          CHANNELS 3 Zrotation Xrotation Yrotation
          End Site
          {
            OFFSET 1.1221 -3.69964 12.103
          }
        }
      }
    }
  }
}
MOTION
Frames:	4
Frame Time:	0.00833333
-3.91033 82.6778 47.504 -7.8168 -5.6425 5.2759 3.97609 -11.903 5.88841 -2.08382 -10.164 1.01539 1.43792 1.97119 -3.00884 8.54118 7.69512 -6.93707 -0.0 0.0 0.0 -0.0 0.0 0.0 2.0789e-13 -2.8233e-14 -4.846e-14 -6.52806 38.4763 69.7452 -27.295 -43.1026 89.8061 -0.214408 -13.2413 -1.89382 -7.76692e-10 6.88659e-11 7.98117e-10 -1.34743e-09 1.17799e-10 1.3682e-09 -7.76691e-10 6.88662e-11 7.98111e-10 7.73091 5.47488 0.417314 -7.76693e-10 6.88671e-11 7.98118e-10 2.90554 0.965183 0.102902 -7.7669e-10 6.88668e-11 7.98119e-10 10.2786 0.731801 0.0259123 -7.76697e-10 6.8871e-11 7.98126e-10 2.22167 -0.733487 -0.20892 2.07738e-13 -2.82223e-14 -4.86494e-14 -40.2706 64.9717 -31.3302 28.2528 -38.7726 -81.7484 3.12198 -43.8228 7.75176 7.97961e-10 1.9921e-10 7.65876e-10 1.35415e-09 4.16302e-10 1.34079e-09 7.97962e-10 1.99214e-10 7.65884e-10 -7.73091 5.47488 -0.417314 7.97966e-10 1.99206e-10 7.65871e-10 -2.90554 0.965183 -0.102902 7.97954e-10 1.99217e-10 7.65878e-10 -10.2786 0.731801 -0.0259123 7.97959e-10 1.99218e-10 7.65875e-10 -2.22167 -0.733487 0.20892 -2.03217e-16 0.0 -3.88251e-19 0.562988 -1.11396 26.0047 0.0955487 -1.5523 0.354821 -4.53349 -6.67701 -20.0677 2.03217e-16 0.0 3.88251e-19 -0.632387 -2.07849 -39.2862 0.003543 12.1018 0.00771652 13.2193 -14.1292 52.4923
-3.93865 82.6756 47.5851 -7.8832 -5.3014 5.1078 3.79901 -11.9096 5.85101 -2.11888 -10.0296 1.00807 1.24929 2.01006 -3.16269 9.07441 8.02644 -7.25791 -0.0 0.0 0.0 -0.0 0.0 0.0 2.46214e-13 -3.16615e-14 -7.85836e-14 -11.0553 40.7954 71.7227 -26.9591 -44.1144 91.7003 -0.261854 -14.5135 -2.08408 -9.45256e-10 3.77657e-10 6.99959e-10 -1.63868e-09 6.52593e-10 1.19609e-09 -9.45255e-10 3.77656e-10 6.99954e-10 7.73091 5.47488 0.417314 -9.45256e-10 3.77658e-10 6.99961e-10 2.90554 0.965183 0.102902 -9.45256e-10 3.77658e-10 6.99963e-10 10.2786 0.731801 0.0259123 -9.45263e-10 3.77663e-10 6.9997e-10 2.22167 -0.733487 -0.20892 2.46081e-13 -3.16517e-14 -7.87424e-14 -39.1469 64.5342 -32.6437 28.2625 -38.6889 -81.6025 3.11451 -43.7832 7.74097 1.66829e-09 3.0047e-10 1.48255e-09 2.8307e-09 6.85508e-10 2.60657e-09 1.66829e-09 3.00475e-10 1.48256e-09 -7.73091 5.47488 -0.417314 1.66829e-09 3.00473e-10 1.48255e-09 -2.90554 0.965183 -0.102902 1.66828e-09 3.00478e-10 1.48255e-09 -10.2786 0.731801 -0.0259123 1.66829e-09 3.00479e-10 1.48255e-09 -2.22167 -0.733487 0.20892 -2.03217e-16 0.0 -3.88251e-19 0.663566 -0.849658 25.9451 0.0964925 -1.53022 0.355492 -4.64469 -6.83404 -20.2914 2.03217e-16 0.0 3.88251e-19 -0.514522 -1.91292 -39.3024 0.00248971 12.0497 0.00188388 12.9191 -13.9712 52.1856
-3.95432 82.6704 47.6682 -7.9033 -4.944 4.9031 3.62761 -11.912 5.85113 -2.11301 -9.91182 1.01444 0.991824 2.06283 -3.32236 9.59159 8.35119 -7.5763 -0.0 0.0 0.0 -0.0 0.0 0.0 2.65501e-13 -3.18106e-14 -9.47209e-14 -15.2737 42.9213 73.7884 -26.7981 -44.5351 92.5152 -0.30146 -15.4364 -2.22406 -9.92186e-10 5.38978e-10 6.03208e-10 -1.71958e-09 9.31868e-10 1.02807e-09 -9.92186e-10 5.38976e-10 6.03205e-10 7.73091 5.47488 0.417314 -9.92186e-10 5.38978e-10 6.03211e-10 2.90554 0.965183 0.102902 -9.92187e-10 5.38978e-10 6.03214e-10 10.2786 0.731801 0.0259123 -9.92195e-10 5.38984e-10 6.03221e-10 2.22167 -0.733487 -0.20892 2.65371e-13 -3.18009e-14 -9.487e-14 -38.3146 64.159 -33.6649 28.2663 -38.6548 -81.5434 3.10463 -43.7307 7.72669 2.17569e-09 2.77974e-10 1.86174e-09 3.69286e-09 7.00205e-10 3.27823e-09 2.17569e-09 2.7798e-10 1.86175e-09 -7.73091 5.47488 -0.417314 2.17569e-09 2.77979e-10 1.86174e-09 -2.90554 0.965183 -0.102902 2.17568e-09 2.77982e-10 1.86174e-09 -10.2786 0.731801 -0.0259123 2.17568e-09 2.77983e-10 1.86174e-09 -2.22167 -0.733487 0.20892 -2.03217e-16 0.0 -3.88251e-19 0.730707 -0.599237 25.8358 0.0974891 -1.5043 0.355972 -4.7297 -6.9646 -20.4324 2.03217e-16 0.0 3.88251e-19 -0.412238 -1.76216 -39.2423 0.00210788 12.0158 -0.00482652 12.6196 -13.8195 51.8469
-3.95266 82.6619 47.7526 -7.851 -4.604 4.6816 3.4431 -11.9036 5.88679 -2.02816 -9.815 1.03787 0.600579 2.14893 -3.5045 10.1188 8.63572 -7.90956 -0.0 0.0 0.0 -0.0 0.0 0.0 2.57118e-13 -2.64444e-14 -8.95603e-14 -19.3552 45.0174 76.0113 -26.8999 -44.1933 91.9612 -0.323825 -15.9338 -2.30003 -8.4374e-10 4.76e-10 4.50526e-10 -1.46203e-09 8.23254e-10 7.65906e-10 -8.43738e-10 4.75999e-10 4.50525e-10 7.73091 5.47488 0.417314 -8.4374e-10 4.76e-10 4.50531e-10 2.90554 0.965183 0.102902 -8.43739e-10 4.76e-10 4.50532e-10 10.2786 0.731801 0.0259123 -8.43752e-10 4.76002e-10 4.5054e-10 2.22167 -0.733487 -0.20892 2.56959e-13 -2.64331e-14 -8.97373e-14 -37.8682 63.8454 -34.3489 28.2626 -38.6877 -81.6006 3.08872 -43.6459 7.70368 2.19163e-09 1.61939e-11 1.75248e-09 3.72414e-09 2.45249e-10 3.09137e-09 2.19163e-09 1.61997e-11 1.75249e-09 -7.73091 5.47488 -0.417314 2.19164e-09 1.61945e-11 1.75248e-09 -2.90554 0.965183 -0.102902 2.19162e-09 1.62001e-11 1.75249e-09 -10.2786 0.731801 -0.0259123 2.19163e-09 1.62003e-11 1.75248e-09 -2.22167 -0.733487 0.20892 -2.03217e-16 0.0 -3.88251e-19 0.753782 -0.350646 25.6416 0.0985096 -1.47255 0.35578 -4.78848 -7.07251 -20.4867 2.03217e-16 0.0 3.88251e-19 -0.321324 -1.63688 -39.0587 0.00268264 12.0046 -0.0141304 12.2663 -13.649 51.3987
